<?xml version="1.0" encoding="UTF-8"?>
<svg id="Layer_2" data-name="Layer 2" xmlns="http://www.w3.org/2000/svg" viewBox="0 0 140.15 29.74">
  <defs>
    <style>
      .cls-1 {
        fill: #fff;
      }

      .cls-2 {
        fill: #231f20;
      }
    </style>
  </defs>
  <g id="Letters">
    <g id="Letters-2" data-name="Letters">
      <g id="E_copy" data-name="E copy">
        <rect class="cls-1" x="46.15" y="13.26" width="22.17" height="4.42"/>
        <path class="cls-1" d="m68.33,17.55c.16-.87.26-1.76.26-2.68,0-8.21-6.66-14.87-14.87-14.87s-14.87,6.66-14.87,14.87,6.66,14.87,14.87,14.87c4.69,0,8.86-2.19,11.58-5.58l-2.79-2.41c-1.55.88-3.68,1.43-6.07,1.43-4.1,0-7.53-1.59-8.37-3.72,0-.01-.02-.02-.02-.03-.02-.04-.04-.08-.05-.12,0-.03,0-.07-.02-.1-.07-.25-.12-.5-.12-.77,0-.23.03-.46.09-.68.6-2.3,4.17-4.07,8.49-4.07s7.65,1.65,8.41,3.84c1.16,0,2.32.01,3.48.01Z"/>
        <g id="Eye_Right_copy_3" data-name="Eye Right copy 3">
          <path class="cls-2" d="m63.46,10.71c0,1.41-1.14,2.55-2.55,2.55s-2.55-1.14-2.55-2.55,1.14-2.55,2.55-2.55,2.55,1.15,2.55,2.55Z"/>
          <ellipse class="cls-1" cx="62.13" cy="9.71" rx=".18" ry=".64" transform="translate(5.36 36.76) rotate(-34.36)"/>
        </g>
        <g id="Eye_Left_copy_3" data-name="Eye Left copy 3">
          <path class="cls-2" d="m51.26,10.71c0,1.41-1.14,2.55-2.55,2.55s-2.55-1.14-2.55-2.55,1.14-2.55,2.55-2.55,2.55,1.15,2.55,2.55Z"/>
          <ellipse class="cls-1" cx="50.08" cy="9.71" rx=".18" ry=".64" transform="translate(3.26 29.96) rotate(-34.36)"/>
        </g>
      </g>
      <g id="W_copy" data-name="W copy">
        <g>
          <path class="cls-1" d="m27.21,22.94l-1.19-.09-1.19-.11s-.1,0-.15-.02l-1.02-.2s-.17-.09-.18-.1l-2.4-1.52s-.02-.02-.03-.03l-2.82-3.75c-.11-.15-.26-.27-.44-.34-.15-.06-.31-.06-.46,0l-.06.02c-.18.07-.34.18-.46.32l-.92,1.12-.76.9s-.09.09-.13.13l-1.12,1.13s0,0,0,0l-.86.72s-.07.05-.1.08l-1.07.73s-.03.02-.05.03l-3.08,1.53s-.02,0-.03,0l-.52.18s-.08.02-.13.03l-.5.09-.4.08-.9.1c-.06,0-.1.07-.08.13l1.34,4.31s.06.08.1.08l5.16.08s.09-.03.1-.07l3.7-8.91s.06-.07.1-.07h.29s.09.03.1.07l3.36,8.56s.06.07.1.07l4.9.05s.09-.03.1-.07l1.78-5.12c.02-.07-.02-.13-.09-.14Z"/>
          <path class="cls-1" d="m32.67,1.58l-.3-.29c-.09-.09-.22-.14-.34-.13l-4.95.12c-.41.01-.81.18-1.09.48l-.22.23c-.19.19-.32.42-.39.68l-2.8,10.29c-.02.08-.1.14-.19.14-.1,0-.18-.06-.21-.15l-3.28-10.21c-.11-.35-.32-.65-.61-.88l-.08-.07c-.2-.16-.45-.25-.71-.25h-1.77c-.38,0-.74.14-1.02.4l-.18.16c-.32.3-.55.68-.68,1.1l-3.14,10.42c-.02.08-.1.14-.19.14-.22,0-.26-.09-.3-.23L7.17,2.39c-.04-.16-.13-.31-.24-.43l-.02-.02c-.16-.1-.34-.15-.53-.15l-5.5.07c-.18,0-.35.06-.49.17-.24.18-.38.46-.38.76h0s5.68,17.4,5.68,17.4c.04.12.17.2.3.17l.87-.21.67-.14.73-.22,1.04-.35c.06-.02.17-.08.22-.12,0,0,3.16-2.29,3.47-2.68l2.01-2.49s0,0,0,0l1.29-1.21c.15-.13.35-.2.55-.19l1.93.12c.27.02.52.15.69.36l1.21,1.18c.09.09.17.18.24.29l2.19,3.13c.27.35.63.62,1.04.79l.12.05c.45.2.94.28,1.43.25l2.07-.13c.11,0,.2-.08.23-.18l4.8-16.56c.05-.17,0-.34-.12-.46Z"/>
        </g>
      </g>
      <g id="R">
        <path class="cls-1" d="m97.29,17.65l3.29,10.1c.14.42-.26.83-.81.83h-8.49c-.39,0-.72-.21-.81-.51l-2.74-9.4c-.09-.3-.42-.51-.81-.51h-2.72c-.41,0-.75.23-.82.55l-1.97,9.32c-.07.32-.41.55-.82.55h-8.17c-.52,0-.91-.37-.82-.77l5.5-26.1c.07-.32.41-.55.82-.55h14.39c4.1,0,7.14.71,9.12,2.14,1.98,1.43,2.96,3.37,2.96,5.82,0,3.73-2.19,6.32-6.58,7.76-.39.13-.61.45-.51.77Zm-12.43-5.97c-.09.4.31.77.82.77h2.9c3.74,0,5.61-1,5.61-3.01,0-1.69-1.57-2.53-4.7-2.53h-2.91c-.41,0-.75.23-.82.55l-.89,4.22Z"/>
      </g>
      <g id="R-2" data-name="R">
        <path class="cls-1" d="m133.07,17.65l3.29,10.1c.14.42-.26.83-.81.83h-8.49c-.39,0-.72-.21-.81-.51l-2.74-9.4c-.09-.3-.42-.51-.81-.51h-2.72c-.41,0-.75.23-.82.55l-1.97,9.32c-.07.32-.41.55-.82.55h-8.17c-.52,0-.91-.37-.82-.77l5.5-26.1c.07-.32.41-.55.82-.55h14.39c4.1,0,7.14.71,9.12,2.14,1.98,1.43,2.96,3.37,2.96,5.82,0,3.73-2.19,6.32-6.58,7.76-.39.13-.61.45-.51.77Zm-12.43-5.97c-.09.4.31.77.82.77h2.9c3.74,0,5.61-1,5.61-3.01,0-1.69-1.57-2.53-4.7-2.53h-2.91c-.41,0-.75.23-.82.55l-.89,4.22Z"/>
      </g>
    </g>
  </g>
</svg>