<?xml version="1.0" encoding="UTF-8"?>
<svg id="Layer_2" data-name="Layer 2" xmlns="http://www.w3.org/2000/svg" viewBox="0 0 35.16 35.16">
  <defs>
    <style>
      .cls-1 {
        fill: #fff;
      }

      .cls-2 {
        fill: #231f20;
      }
    </style>
  </defs>
  <g id="Original_Base" data-name="Original Base">
    <g id="E">
      <rect class="cls-1" x="8.63" y="15.68" width="26.21" height="5.23"/>
      <path class="cls-1" d="m34.86,20.75c.19-1.03.3-2.09.3-3.17C35.16,7.87,27.29,0,17.58,0S0,7.87,0,17.58s7.87,17.58,17.58,17.58c5.55,0,10.47-2.59,13.69-6.6l-3.29-2.85c-1.83,1.04-4.35,1.69-7.18,1.69-4.85,0-8.9-1.88-9.9-4.4,0-.01-.02-.02-.02-.03-.03-.05-.04-.1-.06-.15,0-.04-.01-.08-.02-.12-.09-.3-.14-.6-.14-.91,0-.27.04-.54.1-.8.7-2.72,4.93-4.81,10.04-4.81s9.04,1.96,9.95,4.54c1.37,0,2.74.01,4.11.02Z"/>
      <g id="Eye_Right_copy_2" data-name="Eye Right copy 2">
        <path class="cls-2" d="m29.1,12.66c0,1.67-1.35,3.02-3.02,3.02s-3.02-1.35-3.02-3.02,1.35-3.02,3.02-3.02,3.02,1.36,3.02,3.02Z"/>
        <ellipse class="cls-1" cx="27.52" cy="11.48" rx=".22" ry=".75" transform="translate(-1.68 17.54) rotate(-34.36)"/>
      </g>
      <g id="Eye_Left_copy_2" data-name="Eye Left copy 2">
        <path class="cls-2" d="m14.67,12.66c0,1.67-1.35,3.02-3.02,3.02s-3.02-1.35-3.02-3.02,1.35-3.02,3.02-3.02,3.02,1.36,3.02,3.02Z"/>
        <ellipse class="cls-1" cx="13.28" cy="11.48" rx=".22" ry=".75" transform="translate(-4.16 9.5) rotate(-34.36)"/>
      </g>
    </g>
  </g>
</svg>