<?xml version="1.0" encoding="UTF-8"?>
<svg id="Layer_2" data-name="Layer 2" xmlns="http://www.w3.org/2000/svg" viewBox="0 0 40 40">
  <defs>
    <style>
      .cls-1 {
        fill: #fff;
      }

      .cls-2 {
        fill: #231f20;
      }
    </style>
  </defs>
  <g id="Original_Base" data-name="Original Base">
    <rect class="cls-2" width="40" height="40" rx="3.77" ry="3.77"/>
    <g id="E">
      <rect class="cls-1" x="11.05" y="18.1" width="26.21" height="5.23"/>
      <path class="cls-1" d="m37.28,23.17c.19-1.03.3-2.09.3-3.17,0-9.71-7.87-17.58-17.58-17.58S2.42,10.29,2.42,20s7.87,17.58,17.58,17.58c5.55,0,10.47-2.59,13.69-6.6l-3.29-2.85c-1.83,1.04-4.35,1.69-7.18,1.69-4.85,0-8.9-1.88-9.9-4.4,0-.01-.02-.02-.02-.03-.03-.05-.04-.1-.06-.15,0-.04-.01-.08-.02-.12-.09-.3-.14-.6-.14-.91,0-.27.04-.54.1-.8.7-2.72,4.93-4.81,10.04-4.81s9.04,1.96,9.95,4.54c1.37,0,2.74.01,4.11.02Z"/>
      <g id="Eye_Right_copy_2" data-name="Eye Right copy 2">
        <path class="cls-2" d="m31.52,15.08c0,1.67-1.35,3.02-3.02,3.02s-3.02-1.35-3.02-3.02,1.35-3.02,3.02-3.02,3.02,1.36,3.02,3.02Z"/>
        <ellipse class="cls-1" cx="29.94" cy="13.9" rx=".22" ry=".75" transform="translate(-2.62 19.32) rotate(-34.36)"/>
      </g>
      <g id="Eye_Left_copy_2" data-name="Eye Left copy 2">
        <path class="cls-2" d="m17.09,15.08c0,1.67-1.35,3.02-3.02,3.02s-3.02-1.35-3.02-3.02,1.35-3.02,3.02-3.02,3.02,1.36,3.02,3.02Z"/>
        <ellipse class="cls-1" cx="15.7" cy="13.9" rx=".22" ry=".75" transform="translate(-5.11 11.29) rotate(-34.36)"/>
      </g>
    </g>
  </g>
</svg>